<svg xmlns="http://www.w3.org/2000/svg" width="140" height="40" viewBox="0 0 252 72" fill="none">
    <title>Resolve to Save Lives</title>
    <style>
        :root {
            --rtsl-logo: #252968;
            --rtsl-orange: #f15a24;
        }
    </style>
    <path class="dot" fill="var(--rtsl-logo)" d="M12 65.79v.42C12 69.41 9.4 72 6.21 72H5.8C2.59 72 0 69.4 0 66.21v-.42C0 62.59 2.6 60 5.79 60h.42c3.2 0 5.79 2.6 5.79 5.79Z"></path>
    <path id="Chevrons" fill="var(--rtsl-orange)" fill-rule="evenodd" d="M65.79 0h.42C69.41 0 72 2.6 72 5.79V66.2c0 3.2-2.6 5.79-5.79 5.79h-.42c-3.2 0-5.79-2.6-5.79-5.79V12H5.79C2.59 12 0 9.4 0 6.21V5.8C0 2.59 2.6 0 5.79 0h60Zm-30 30h.42c3.2 0 5.79 2.6 5.79 5.79V66.2c0 3.2-2.6 5.79-5.79 5.79h-.42c-3.2 0-5.79-2.6-5.79-5.79V42H5.79C2.59 42 0 39.4 0 36.21v-.42C0 32.59 2.6 30 5.79 30h30Z" clip-rule="evenodd"></path>
    <path id="Text" fill="var(--rtsl-logo)" fill-rule="evenodd" d="m133 30.23 7.54-.23c.23 2.51.8 5.42 3.66 5.42 2.29 0 2.98-1.94 2.98-3.77 0-2.22-1.44-3.87-3.78-6.1l-3.89-3.82c-3.65-3.42-5.88-6.79-5.88-11.24 0-5.64 3.54-10.49 10.8-10.49 5.09 0 9.83 2.62 10.18 11.52l-7.1.23c-.28-2.97-.96-5.3-3.48-5.3-2 0-2.91 1.53-2.91 3.42 0 2.12 2.14 4.14 4.06 5.94l.1.1 3.61 3.54c3.94 3.76 6.17 7.24 6.17 11.8 0 6-4.11 10.73-10.91 10.73S133.4 37.48 133 30.23ZM95.85.68H84.13v40.67h8.06V25.21h2.69l4.17 16.14h8.34l-5.25-17.9c2.85-1.55 4.74-4.86 4.74-10.73 0-8.27-4.17-12.04-11.03-12.04Zm2.97 12.55c0 4.4-1.37 6-3.66 6H92.2V7.35h2.91c2.52 0 3.72 2.05 3.72 5.87ZM130.94.68h-19.6v40.67H131v-6.9h-11.66V23.9h9.2v-6.85h-9.2V7.47h11.6V.68Zm27.66 10.44v19.74c0 7.58 4.8 11.12 11.78 11.12 6.57 0 11.83-3.65 11.83-11.24V11.01c0-7.53-5.2-10.95-11.77-10.95-6.75 0-11.84 3.82-11.84 11.06Zm15.5-.34v20.25c0 2.22-1.26 3.88-3.66 3.88-2.4 0-3.66-1.66-3.66-3.94V10.84c0-2.29 1.2-3.77 3.6-3.77 2.23 0 3.71 1.37 3.71 3.7ZM186.72.68h8v33.77h11.66v6.9h-19.66V.68Zm26.52 0h-8l7.94 40.84h8.52L229.54.68h-7.26l-4.4 26.24h-.23L213.25.68Zm19.09 0h19.6v6.8h-11.6v9.57h9.2v6.85h-9.2v10.55H252v6.9h-19.66V.68ZM84 51.1h4.68v20.53h4.91V51.09h4.64V47H84v4.1Zm15.65 14.17V53.31c0-4.4 3.08-6.7 7.17-6.7 3.98 0 7.14 2.06 7.14 6.63v11.95c0 4.6-3.2 6.81-7.17 6.81-4.23 0-7.14-2.14-7.14-6.74Zm9.39.1V53.1c0-1.42-.9-2.25-2.25-2.25-1.46 0-2.19.9-2.19 2.28v12.2c0 1.38.77 2.38 2.22 2.38 1.46 0 2.22-1 2.22-2.34Zm16.76-.62-4.58.14c.25 4.39 2.64 7.12 6.76 7.12 4.12 0 6.61-2.87 6.61-6.5 0-2.76-1.35-4.87-3.74-7.15l-2.18-2.14-.06-.06c-1.16-1.09-2.47-2.31-2.47-3.6 0-1.15.56-2.08 1.77-2.08 1.52 0 1.94 1.42 2.11 3.22l4.3-.14c-.21-5.4-3.09-6.98-6.17-6.98-4.4 0-6.55 2.93-6.55 6.35 0 2.7 1.36 4.74 3.57 6.81l2.36 2.32c1.42 1.35 2.28 2.35 2.28 3.7 0 1.1-.41 2.28-1.8 2.28-1.73 0-2.07-1.77-2.21-3.29Zm15.13-17.8h6.65l4.81 24.68h-4.95l-1-5.53h-5.03l-1 5.53h-4.5l5.02-24.67Zm4.7 15.21-1.62-9.7h-.1l-1.7 9.7h3.43Zm11.12-15.17h-4.85l4.82 24.74h5.16l4.74-24.74h-4.4l-2.66 15.9h-.14l-2.67-15.9Zm11.57 0h11.88v4.11h-7.03v5.8h5.57v4.16h-5.58v6.39h7.07v4.18h-11.91V46.98Zm24.44 0h-4.84v24.64h11.9v-4.18h-7.06V46.98Zm14.24 0h-4.89v24.64H207V46.98Zm6.54 0h-4.85l4.81 24.74h5.16l4.75-24.74h-4.4l-2.66 15.9h-.14l-2.67-15.9Zm11.56 0H237v4.11h-7.04v5.8h5.58v4.16h-5.58v6.39h7.07v4.18H225.1V46.98Zm18.01 17.76-4.57.14c.24 4.39 2.63 7.12 6.75 7.12 4.13 0 6.62-2.87 6.62-6.5 0-2.76-1.35-4.87-3.74-7.15l-2.18-2.14-.06-.06c-1.17-1.1-2.47-2.31-2.47-3.6 0-1.15.55-2.08 1.76-2.08 1.53 0 1.94 1.42 2.12 3.22l4.3-.14c-.21-5.4-3.09-6.98-6.17-6.98-4.4 0-6.55 2.93-6.55 6.35 0 2.7 1.35 4.74 3.57 6.81l2.35 2.32c1.42 1.35 2.29 2.35 2.29 3.7 0 1.1-.42 2.28-1.8 2.28-1.73 0-2.08-1.77-2.22-3.29Z" clip-rule="evenodd"></path>
</svg>
