<svg xmlns="http://www.w3.org/2000/svg" viewBox="0 0 16 16" fill="currentColor">
  <path fill-rule="evenodd" d="M13.25 2.5H2.75a.25.25 0 0 0-.25.25v10.5c0 .138.112.25.25.25h10.5a.25.25 0 0 0 .25-.25V2.75a.25.25 0 0 0-.25-.25ZM2.75 1h10.5c.966 0 1.75.784 1.75 1.75v10.5A1.75 1.75 0 0 1 13.25 15H2.75A1.75 1.75 0 0 1 1 13.25V2.75C1 1.784 1.784 1 2.75 1ZM11.75 7.75a.75.75 0 0 0 0-1.5h-7.5a.75.75 0 0 0 0 1.5h7.5ZM4 9.5a.75.75 0 0 1 .75-.75h4.5a.75.75 0 0 1 0 1.5h-4.5A.75.75 0 0 1 4 9.5Zm.75-5.75a.75.75 0 0 0 0 1.5h7a.75.75 0 0 0 0-1.5h-7Z"/>
</svg>